<svg width="390" height="531" viewBox="0 0 390 531" fill="none" xmlns="http://www.w3.org/2000/svg">
<path d="M49.8757 0V224.016C86.5897 183.914 141.314 157.641 199.503 157.641C304.796 157.641 390 240.609 390 344.32C390 448.031 304.796 531 199.503 531C141.314 531 86.5897 504.727 49.8757 464.625V521.32H0V0H49.8757ZM198.81 485.367C278.472 485.367 342.203 422.449 342.203 344.32C342.203 266.191 278.472 203.273 198.81 203.273C119.147 203.273 49.8757 266.191 49.8757 344.32C49.8757 422.449 119.147 485.367 198.81 485.367Z" fill="#222222"/>
<circle cx="195" cy="342" r="33" fill="#FF3644"/>
</svg>
