<svg width="50" height="50" viewBox="0 0 50 50" fill="none" xmlns="http://www.w3.org/2000/svg">
<g clip-path="url(#clip0_6_4)">
<path fill-rule="evenodd" clip-rule="evenodd" d="M43.75 14.0625V43.75C43.75 45.4076 43.0915 46.9973 41.9194 48.1694C40.7473 49.3415 39.1576 50 37.5 50H34.375V46.875H37.5C38.3288 46.875 39.1237 46.5458 39.7097 45.9597C40.2958 45.3737 40.625 44.5788 40.625 43.75V14.0625H34.375C33.1318 14.0625 31.9395 13.5686 31.0604 12.6896C30.1814 11.8105 29.6875 10.6182 29.6875 9.375V3.125H12.5C11.6712 3.125 10.8763 3.45424 10.2903 4.04029C9.70424 4.62634 9.375 5.4212 9.375 6.25V34.375H6.25V6.25C6.25 4.5924 6.90848 3.00269 8.08058 1.83058C9.25268 0.65848 10.8424 0 12.5 0L29.6875 0L43.75 14.0625ZM10.6156 46.3781C10.6335 46.8705 10.7542 47.3537 10.9701 47.7967C11.1859 48.2396 11.492 48.6325 11.8688 48.95C12.275 49.2875 12.7719 49.55 13.3625 49.7375C13.9563 49.9281 14.6469 50.0219 15.4406 50.0219C16.4969 50.0219 17.3906 49.8562 18.125 49.5281C18.8625 49.2 19.425 48.7406 19.8094 48.1531C20.2 47.5625 20.3938 46.8781 20.3938 46.1031C20.3938 45.4031 20.2531 44.8219 19.975 44.3531C19.689 43.8849 19.2848 43.5002 18.8031 43.2375C18.2496 42.9317 17.6534 42.7105 17.0344 42.5813L15.0937 42.1313C14.6363 42.0472 14.2043 41.859 13.8313 41.5812C13.6887 41.4713 13.5737 41.3296 13.4956 41.1673C13.4175 41.0051 13.3783 40.8269 13.3813 40.6469C13.3813 40.1594 13.575 39.7594 13.9594 39.4469C14.35 39.1313 14.8844 38.9719 15.5594 38.9719C16.0063 38.9719 16.3906 39.0437 16.7156 39.1844C17.0148 39.3063 17.2789 39.5007 17.4844 39.75C17.6767 39.982 17.8059 40.2597 17.8594 40.5562H20.2031C20.1641 39.9199 19.9476 39.3071 19.5781 38.7875C19.1832 38.2266 18.643 37.7837 18.0156 37.5062C17.2482 37.1696 16.4158 37.0074 15.5781 37.0313C14.6625 37.0313 13.8563 37.1875 13.1531 37.5C12.45 37.8094 11.9031 38.25 11.5062 38.8156C11.1094 39.3844 10.9125 40.05 10.9125 40.8125C10.9125 41.4406 11.0375 41.9875 11.2938 42.45C11.55 42.9156 11.9188 43.2938 12.3938 43.5969C12.8688 43.8938 13.4313 44.1187 14.0781 44.2625L16.0094 44.7125C16.6563 44.8656 17.1375 45.0656 17.4562 45.3156C17.612 45.4343 17.7366 45.589 17.8193 45.7665C17.902 45.9439 17.9405 46.1388 17.9312 46.3344C17.9373 46.6565 17.8446 46.9727 17.6656 47.2406C17.4644 47.515 17.1874 47.7246 16.8687 47.8438C16.5219 47.9906 16.0906 48.0625 15.5781 48.0625C15.2125 48.0625 14.8812 48.0219 14.5781 47.9375C14.3019 47.8609 14.04 47.7395 13.8031 47.5781C13.5951 47.4435 13.417 47.2674 13.2799 47.061C13.1428 46.8546 13.0497 46.6221 13.0063 46.3781H10.6156V46.3781ZM2.51875 42.7906C2.51875 42.0156 2.625 41.3531 2.8375 40.8125C3.02286 40.3132 3.35109 39.8796 3.78125 39.5656C4.21969 39.2725 4.73841 39.1229 5.26562 39.1375C5.73437 39.1375 6.15 39.2375 6.50937 39.4406C6.86155 39.6288 7.15551 39.9098 7.35938 40.2531C7.57718 40.6146 7.70573 41.0227 7.73437 41.4438H10.125V41.2187C10.1043 40.6431 9.96411 40.0781 9.71342 39.5595C9.46273 39.0409 9.10698 38.5801 8.66875 38.2062C8.21981 37.8258 7.70065 37.537 7.14063 37.3563C6.53082 37.1498 5.89065 37.0473 5.24688 37.0531C4.13438 37.0531 3.18437 37.2844 2.4 37.75C1.61875 38.2125 1.025 38.8719 0.6125 39.725C0.20625 40.5812 0 41.6 0 42.7844V44.3406C0 45.525 0.2 46.5406 0.603125 47.3906C1.0125 48.2375 1.60937 48.8906 2.39062 49.3469C3.17187 49.8 4.12188 50.025 5.24688 50.025C6.1625 50.025 6.97812 49.8531 7.7 49.5125C8.41875 49.1687 8.99375 48.7 9.41875 48.0938C9.84987 47.4732 10.0949 46.7425 10.125 45.9875V45.75H7.7375C7.70803 46.1524 7.58151 46.5416 7.36875 46.8844C7.16049 47.2162 6.86693 47.486 6.51875 47.6656C6.12854 47.8544 5.69899 47.9476 5.26562 47.9375C4.73766 47.9525 4.21733 47.8088 3.77188 47.525C3.34395 47.2203 3.01822 46.7933 2.8375 46.3C2.60901 45.6727 2.50087 45.008 2.51875 44.3406V42.7938V42.7906ZM21.1875 47.7812C20.9801 47.3411 20.8622 46.8642 20.8406 46.3781H23.2281C23.2715 46.6221 23.3647 46.8546 23.5018 47.061C23.6389 47.2674 23.817 47.4435 24.025 47.5781C24.2438 47.7313 24.5063 47.85 24.8063 47.9344C25.1031 48.0219 25.4344 48.0625 25.8031 48.0625C26.3156 48.0625 26.7438 47.9906 27.0938 47.8438C27.4124 47.7246 27.6894 47.515 27.8906 47.2406C28.0692 46.9726 28.1619 46.6564 28.1563 46.3344C28.1651 46.1385 28.1262 45.9435 28.0429 45.766C27.9596 45.5885 27.8344 45.434 27.6781 45.3156C27.3625 45.0656 26.8781 44.8656 26.2313 44.7125L24.3 44.2656C23.7047 44.1397 23.1352 43.9135 22.6156 43.5969C22.1574 43.3153 21.7796 42.9203 21.5188 42.45C21.2529 41.9459 21.1206 41.3822 21.1344 40.8125C21.1344 40.05 21.3313 39.3844 21.7281 38.8156C22.125 38.25 22.675 37.8094 23.375 37.4969C24.0781 37.1844 24.8875 37.0313 25.8031 37.0313C26.7531 37.0313 27.5656 37.1875 28.2375 37.5062C28.9156 37.825 29.4375 38.2531 29.8 38.7875C30.175 39.3187 30.3844 39.9094 30.425 40.5562H28.0813C28.0278 40.2597 27.8986 39.982 27.7063 39.75C27.5008 39.5007 27.2366 39.3063 26.9375 39.1844C26.5708 39.0349 26.1772 38.9626 25.7812 38.9719C25.1062 38.9719 24.5719 39.1281 24.1812 39.4469C23.9981 39.5879 23.8506 39.7699 23.7507 39.9783C23.6509 40.1868 23.6014 40.4158 23.6062 40.6469C23.6062 41.025 23.7531 41.3344 24.0531 41.5844C24.4265 41.861 24.8584 42.0481 25.3156 42.1313L27.2563 42.5781C27.9344 42.7344 28.525 42.9531 29.025 43.2375C29.525 43.5188 29.9156 43.8938 30.1969 44.3563C30.4781 44.8188 30.6188 45.4031 30.6188 46.1062C30.6188 46.8781 30.4219 47.5625 30.0312 48.1562C29.6152 48.7677 29.0299 49.2445 28.3469 49.5281C27.6156 49.8562 26.7219 50.0219 25.6656 50.0219C24.8719 50.0219 24.1781 49.9281 23.5875 49.7406C23.0433 49.5773 22.536 49.3099 22.0938 48.9531C21.7122 48.631 21.4033 48.2316 21.1875 47.7812V47.7812Z" fill="#222222"/>
</g>
<defs>
<clipPath id="clip0_6_4">
<rect width="50" height="50" fill="white"/>
</clipPath>
</defs>
</svg>
