<svg width="50" height="50" viewBox="0 0 50 50" fill="none" xmlns="http://www.w3.org/2000/svg">
<g clip-path="url(#clip0_6_60)">
<path fill-rule="evenodd" clip-rule="evenodd" d="M17.5312 0C12.4333 0 8.33332 4.27708 8.33332 9.51667C8.33332 12.7021 9.84999 15.5313 12.1812 17.2583C10.9797 18.1585 10.0058 19.3277 9.33762 20.6721C8.6694 22.0165 8.32545 23.4987 8.33332 25C8.33332 28.1875 9.84999 31.0146 12.1812 32.7417C10.9797 33.6418 10.0058 34.811 9.33762 36.1554C8.6694 37.4998 8.32545 38.982 8.33332 40.4833C8.33332 45.7229 12.4333 50 17.5312 50C22.6271 50 26.7292 45.7229 26.7292 40.4833V32.4375C28.3403 33.7808 30.3711 34.5172 32.4687 34.5187C37.5667 34.5167 41.6667 30.2396 41.6667 25C41.6667 21.8125 40.1521 18.9854 37.8187 17.2583C39.0202 16.3582 39.9941 15.189 40.6624 13.8446C41.3306 12.5002 41.6745 11.018 41.6667 9.51667C41.6667 4.27708 37.5667 0 32.4687 0H17.5312V0ZM11.7896 9.51667C11.7896 6.20208 14.3771 3.54792 17.5312 3.54792H23.2708V15.4854H17.5312C14.3771 15.4854 11.7896 12.8292 11.7896 9.51667V9.51667ZM32.4687 15.4833H26.7292V3.54583H32.4687C35.625 3.54583 38.2104 6.20208 38.2104 9.51667C38.2104 12.8292 35.625 15.4833 32.4687 15.4833ZM11.7917 25C11.7917 21.6875 14.3792 19.0312 17.5333 19.0312H23.2729V30.9687H17.5312C14.375 30.9687 11.7896 28.3125 11.7896 25H11.7917ZM26.7292 25C26.7292 21.6875 29.3167 19.0312 32.4708 19.0312C35.6271 19.0312 38.2125 21.6854 38.2125 25C38.2125 28.3125 35.6271 30.9687 32.4708 30.9687C29.3167 30.9687 26.7312 28.3146 26.7312 25H26.7292ZM11.7917 40.4833C11.7917 37.1708 14.3792 34.5167 17.5333 34.5167H23.2729V40.4833C23.2729 43.7979 20.6896 46.4521 17.5333 46.4521C14.3792 46.4521 11.7917 43.7979 11.7917 40.4833Z" fill="#222222"/>
</g>
<defs>
<clipPath id="clip0_6_60">
<rect width="50" height="50" fill="white"/>
</clipPath>
</defs>
</svg>
