<svg width="50" height="50" viewBox="0 0 50 50" fill="none" xmlns="http://www.w3.org/2000/svg">
<path d="M9.10059 32.166L13.7344 2.4717C13.8945 1.459 15.2529 1.21974 15.7324 2.12502L20.7129 11.4463L9.10059 32.166ZM42.1875 39.0625L37.623 12.0322C37.5899 11.839 37.5046 11.6586 37.3763 11.5104C37.2479 11.3622 37.0815 11.252 36.895 11.1916C36.7085 11.1313 36.509 11.1231 36.3182 11.168C36.1274 11.2129 35.9525 11.3091 35.8125 11.4463L7.8125 39.0625L23.375 48.0381C23.8526 48.3 24.3884 48.4373 24.9331 48.4373C25.4778 48.4373 26.0136 48.3 26.4912 48.0381L42.1875 39.0625ZM29.5273 15.5205L25.959 8.72951C25.8703 8.55505 25.735 8.40855 25.5681 8.30623C25.4013 8.2039 25.2094 8.14974 25.0137 8.14974C24.818 8.14974 24.626 8.2039 24.4592 8.30623C24.2924 8.40855 24.1571 8.55505 24.0684 8.72951L8.38184 36.6934L29.5273 15.5205Z" fill="#222222"/>
</svg>
