<svg width="50" height="50" viewBox="0 0 50 50" fill="none" xmlns="http://www.w3.org/2000/svg">
<g clip-path="url(#clip0_6_24)">
<path d="M49.0563 22.7719L27.225 0.94374C26.9261 0.644683 26.5712 0.407449 26.1806 0.245592C25.79 0.0837354 25.3713 0.000427246 24.9484 0.000427246C24.5256 0.000427246 24.1069 0.0837354 23.7163 0.245592C23.3257 0.407449 22.9708 0.644683 22.6719 0.94374L18.1406 5.47499L23.8906 11.225C24.5688 10.9935 25.2983 10.9572 25.9961 11.1205C26.6938 11.2837 27.3316 11.6398 27.8367 12.1481C28.3417 12.6564 28.6937 13.2965 28.8525 13.9953C29.0112 14.694 28.9703 15.4234 28.7344 16.1L34.275 21.6437C35.0947 21.3551 35.9883 21.3542 36.8086 21.6413C37.6289 21.9283 38.327 22.4861 38.7879 23.2228C39.2489 23.9595 39.4452 24.8313 39.3446 25.6945C39.244 26.5577 38.8524 27.3609 38.2344 27.9719C37.6087 28.6014 36.7839 28.9941 35.9008 29.083C35.0177 29.172 34.1311 28.9515 33.3925 28.4593C32.6539 27.9672 32.1091 27.2339 31.8512 26.3846C31.5932 25.5354 31.6381 24.6229 31.9781 23.8031L26.8125 18.6344V32.2375C27.5977 32.6262 28.2259 33.2722 28.5926 34.0679C28.9592 34.8636 29.042 35.7609 28.8272 36.6103C28.6124 37.4597 28.113 38.2098 27.4123 38.7356C26.7115 39.2614 25.8517 39.5312 24.9761 39.4999C24.1006 39.4686 23.2622 39.1382 22.6007 38.5638C21.9392 37.9893 21.4946 37.2055 21.341 36.3429C21.1874 35.4804 21.334 34.5913 21.7564 33.8237C22.1789 33.0562 22.8516 32.4566 23.6625 32.125V18.3969C23.1947 18.2052 22.7694 17.9227 22.4112 17.5659C22.053 17.2091 21.769 16.7849 21.5755 16.3177C21.382 15.8506 21.2829 15.3498 21.2839 14.8442C21.2849 14.3386 21.386 13.8382 21.5813 13.3719L15.9156 7.70311L0.946883 22.6719C0.647826 22.9708 0.410592 23.3257 0.248736 23.7163C0.0868787 24.1069 0.00357056 24.5256 0.00357056 24.9484C0.00357056 25.3713 0.0868787 25.7899 0.248736 26.1806C0.410592 26.5712 0.647826 26.9261 0.946883 27.225L22.7781 49.0562C23.077 49.3553 23.4319 49.5925 23.8226 49.7544C24.2132 49.9162 24.6319 49.9996 25.0547 49.9996C25.4775 49.9996 25.8962 49.9162 26.2868 49.7544C26.6774 49.5925 27.0324 49.3553 27.3313 49.0562L49.0594 27.3281C49.6626 26.724 50.0014 25.9052 50.0014 25.0516C50.0014 24.1979 49.6626 23.3791 49.0594 22.775" fill="#222222"/>
</g>
<defs>
<clipPath id="clip0_6_24">
<rect width="50" height="50" fill="white"/>
</clipPath>
</defs>
</svg>
