<svg width="50" height="50" viewBox="0 0 50 50" fill="none" xmlns="http://www.w3.org/2000/svg">
<path d="M24.6094 34.375C24.6094 34.6858 24.4859 34.9839 24.2661 35.2037C24.0464 35.4234 23.7483 35.5469 23.4375 35.5469H21.4844V42.1875C21.4844 42.4983 21.3609 42.7964 21.1411 43.0162C20.9214 43.2359 20.6233 43.3594 20.3125 43.3594C20.0017 43.3594 19.7036 43.2359 19.4839 43.0162C19.2641 42.7964 19.1406 42.4983 19.1406 42.1875V35.5469H17.1875C16.8767 35.5469 16.5786 35.4234 16.3589 35.2037C16.1391 34.9839 16.0156 34.6858 16.0156 34.375C16.0156 34.0642 16.1391 33.7661 16.3589 33.5464C16.5786 33.3266 16.8767 33.2031 17.1875 33.2031H23.4375C23.7483 33.2031 24.0464 33.3266 24.2661 33.5464C24.4859 33.7661 24.6094 34.0642 24.6094 34.375ZM12.5 33.2031C12.1892 33.2031 11.8911 33.3266 11.6714 33.5464C11.4516 33.7661 11.3281 34.0642 11.3281 34.375V37.1094H8.20312V34.375C8.20312 34.0642 8.07966 33.7661 7.85989 33.5464C7.64012 33.3266 7.34205 33.2031 7.03125 33.2031C6.72045 33.2031 6.42238 33.3266 6.20261 33.5464C5.98284 33.7661 5.85938 34.0642 5.85938 34.375V42.1875C5.85938 42.4983 5.98284 42.7964 6.20261 43.0162C6.42238 43.2359 6.72045 43.3594 7.03125 43.3594C7.34205 43.3594 7.64012 43.2359 7.85989 43.0162C8.07966 42.7964 8.20312 42.4983 8.20312 42.1875V39.4531H11.3281V42.1875C11.3281 42.4983 11.4516 42.7964 11.6714 43.0162C11.8911 43.2359 12.1892 43.3594 12.5 43.3594C12.8108 43.3594 13.1089 43.2359 13.3286 43.0162C13.5484 42.7964 13.6719 42.4983 13.6719 42.1875V34.375C13.6719 34.0642 13.5484 33.7661 13.3286 33.5464C13.1089 33.3266 12.8108 33.2031 12.5 33.2031ZM46.0938 41.0156H42.5781V34.375C42.5781 34.0642 42.4547 33.7661 42.2349 33.5464C42.0151 33.3266 41.7171 33.2031 41.4062 33.2031C41.0954 33.2031 40.7974 33.3266 40.5776 33.5464C40.3578 33.7661 40.2344 34.0642 40.2344 34.375V42.1875C40.2344 42.4983 40.3578 42.7964 40.5776 43.0162C40.7974 43.2359 41.0954 43.3594 41.4062 43.3594H46.0938C46.4046 43.3594 46.7026 43.2359 46.9224 43.0162C47.1422 42.7964 47.2656 42.4983 47.2656 42.1875C47.2656 41.8767 47.1422 41.5786 46.9224 41.3589C46.7026 41.1391 46.4046 41.0156 46.0938 41.0156V41.0156ZM36.2891 33.2617C36.0535 33.186 35.8 33.1868 35.565 33.264C35.3299 33.3412 35.1253 33.4908 34.9805 33.6914L32.0312 37.832L29.082 33.6914C28.9381 33.4877 28.7329 33.3353 28.4964 33.2562C28.2598 33.1772 28.0042 33.1757 27.7667 33.2519C27.5292 33.3282 27.3223 33.4782 27.1759 33.6802C27.0296 33.8822 26.9516 34.1256 26.9531 34.375V42.1875C26.9531 42.4983 27.0766 42.7964 27.2964 43.0162C27.5161 43.2359 27.8142 43.3594 28.125 43.3594C28.4358 43.3594 28.7339 43.2359 28.9536 43.0162C29.1734 42.7964 29.2969 42.4983 29.2969 42.1875V38.0274L31.0742 40.5274C31.185 40.6768 31.3293 40.7982 31.4955 40.8819C31.6617 40.9656 31.8452 41.0092 32.0312 41.0092C32.2173 41.0092 32.4008 40.9656 32.567 40.8819C32.7332 40.7982 32.8775 40.6768 32.9883 40.5274L34.7656 38.0274V42.1875C34.7656 42.4983 34.8891 42.7964 35.1089 43.0162C35.3286 43.2359 35.6267 43.3594 35.9375 43.3594C36.2483 43.3594 36.5464 43.2359 36.7661 43.0162C36.9859 42.7964 37.1094 42.4983 37.1094 42.1875V34.375C37.1084 34.1264 37.0284 33.8846 36.8809 33.6845C36.7335 33.4843 36.5262 33.3363 36.2891 33.2617V33.2617ZM40.625 27.7344C40.3142 27.7344 40.0161 27.6109 39.7964 27.3912C39.5766 27.1714 39.4531 26.8733 39.4531 26.5625V18.3594H29.6875C29.3767 18.3594 29.0786 18.2359 28.8589 18.0161C28.6391 17.7964 28.5156 17.4983 28.5156 17.1875V7.42188H10.9375C10.8339 7.42188 10.7345 7.46304 10.6613 7.53629C10.588 7.60955 10.5469 7.70891 10.5469 7.81251V26.5625C10.5469 26.8733 10.4234 27.1714 10.2036 27.3912C9.98387 27.6109 9.6858 27.7344 9.375 27.7344C9.0642 27.7344 8.76613 27.6109 8.54636 27.3912C8.32659 27.1714 8.20313 26.8733 8.20312 26.5625V7.81251C8.20313 7.08731 8.49121 6.39181 9.00401 5.87901C9.5168 5.36622 10.2123 5.07813 10.9375 5.07813H29.6875C29.8413 5.07577 29.9938 5.10586 30.1351 5.16644C30.2765 5.22702 30.4035 5.31672 30.5078 5.42969L41.4453 16.3477C41.557 16.4571 41.6456 16.5878 41.706 16.732C41.7664 16.8763 41.7973 17.0311 41.7969 17.1875V26.5625C41.7969 26.8733 41.6734 27.1714 41.4536 27.3912C41.2339 27.6109 40.9358 27.7344 40.625 27.7344ZM30.8594 16.0156H37.793L30.8594 9.08204V16.0156Z" fill="#222222"/>
</svg>
