<svg width="50" height="50" viewBox="0 0 50 50" fill="none" xmlns="http://www.w3.org/2000/svg">
<path d="M0 0.626587V49.3735H50V0.626587H0ZM2.08281 2.7094H47.9156V47.2891H2.08281V2.7094ZM17.3422 28.2313L15.6906 34.4735C15.6578 34.6532 15.5922 34.6844 15.3891 34.6844H12.3297C12.1187 34.6844 12.0859 34.6188 12.1188 34.3828L18.0344 13.6641C18.1406 13.2891 18.2047 12.9563 18.2375 11.9219C18.2375 11.7828 18.3109 11.7188 18.4172 11.7188H22.7797C22.9188 11.7188 22.9906 11.7516 23.0234 11.9219L29.6562 34.4156C29.6969 34.586 29.6563 34.6844 29.4859 34.6844H26.0516C25.8719 34.6844 25.775 34.6438 25.7422 34.5047L24.0172 28.2297H17.3359L17.3422 28.2313ZM23.1531 24.8453C22.5672 22.5422 21.1922 17.4969 20.6797 15.0547H20.6391C20.2 17.4875 19.0922 21.6141 18.2391 24.8453H23.1531ZM32.5281 13.2656C32.5281 11.9235 33.4563 11.1328 34.6609 11.1328C35.9313 11.1328 36.7938 11.9953 36.7938 13.2656C36.7938 14.6406 35.8984 15.3985 34.6203 15.3985C33.375 15.3985 32.5203 14.6422 32.5203 13.2656H32.5281ZM32.7641 18.0016C32.7641 17.8391 32.8297 17.7735 33 17.7735H36.2719C36.4594 17.7735 36.5234 17.8391 36.5234 18.0172V34.4641C36.5234 34.6344 36.4906 34.7 36.2797 34.7H33.0563C32.8453 34.7 32.7797 34.6016 32.7797 34.4313V18L32.7641 18.0016Z" fill="#222222"/>
</svg>
