<svg width="50" height="50" viewBox="0 0 50 50" fill="none" xmlns="http://www.w3.org/2000/svg">
<path d="M10 10C10 8.67392 10.5268 7.40215 11.4645 6.46447C12.4021 5.52678 13.6739 5 15 5H26.465C27.4592 5.00088 28.4124 5.39654 29.115 6.1L38.9025 15.885C39.605 16.588 39.9998 17.5411 40 18.535V40C40 41.3261 39.4732 42.5979 38.5355 43.5355C37.5979 44.4732 36.3261 45 35 45H21.25C21.7975 44.275 22.1875 43.425 22.375 42.5H35C35.663 42.5 36.2989 42.2366 36.7678 41.7678C37.2366 41.2989 37.5 40.663 37.5 40V20H28.75C27.7554 20 26.8016 19.6049 26.0983 18.9017C25.3951 18.1984 25 17.2446 25 16.25V7.5H15C14.337 7.5 13.7011 7.76339 13.2322 8.23223C12.7634 8.70107 12.5 9.33696 12.5 10V28.75C12.2975 28.9025 12.1 29.0675 11.92 29.245C11.4696 28.5336 10.7935 27.994 10 27.7125V10ZM28.75 17.5H36.9825L27.5 8.0175V16.25C27.5 16.5815 27.6317 16.8995 27.8661 17.1339C28.1005 17.3683 28.4185 17.5 28.75 17.5ZM8.75 30C8.41848 30 8.10054 30.1317 7.86612 30.3661C7.6317 30.6005 7.5 30.9185 7.5 31.25V41.25C7.5 41.5815 7.3683 41.8995 7.13388 42.1339C6.89946 42.3683 6.58152 42.5 6.25 42.5C5.91848 42.5 5.60054 42.3683 5.36612 42.1339C5.1317 41.8995 5 41.5815 5 41.25V40C5 39.6685 4.8683 39.3505 4.63388 39.1161C4.39946 38.8817 4.08152 38.75 3.75 38.75C3.41848 38.75 3.10054 38.8817 2.86612 39.1161C2.6317 39.3505 2.5 39.6685 2.5 40V41.25C2.5 42.2446 2.89509 43.1984 3.59835 43.9016C4.30161 44.6049 5.25544 45 6.25 45C7.24456 45 8.19839 44.6049 8.90165 43.9016C9.60491 43.1984 10 42.2446 10 41.25V31.25C10 30.9185 9.8683 30.6005 9.63388 30.3661C9.39946 30.1317 9.08152 30 8.75 30ZM12.5 33.75C12.5 32.7554 12.8951 31.8016 13.5983 31.0983C14.3016 30.3951 15.2554 30 16.25 30C17.2446 30 18.1984 30.3951 18.9017 31.0983C19.6049 31.8016 20 32.7554 20 33.75C20 34.0815 19.8683 34.3995 19.6339 34.6339C19.3995 34.8683 19.0815 35 18.75 35C18.4185 35 18.1005 34.8683 17.8661 34.6339C17.6317 34.3995 17.5 34.0815 17.5 33.75C17.5 33.4185 17.3683 33.1005 17.1339 32.8661C16.8995 32.6317 16.5815 32.5 16.25 32.5C15.9185 32.5 15.6005 32.6317 15.3661 32.8661C15.1317 33.1005 15 33.4185 15 33.75V34.705C15 34.9369 15.0646 35.1643 15.1864 35.3617C15.3083 35.559 15.4826 35.7186 15.69 35.8225L17.9275 36.94C18.5504 37.2516 19.0743 37.7305 19.4404 38.3231C19.8064 38.9157 20.0002 39.5985 20 40.295V41.25C20 42.2446 19.6049 43.1984 18.9017 43.9016C18.1984 44.6049 17.2446 45 16.25 45C15.2554 45 14.3016 44.6049 13.5983 43.9016C12.8951 43.1984 12.5 42.2446 12.5 41.25C12.5 40.9185 12.6317 40.6005 12.8661 40.3661C13.1005 40.1317 13.4185 40 13.75 40C14.0815 40 14.3995 40.1317 14.6339 40.3661C14.8683 40.6005 15 40.9185 15 41.25C15 41.5815 15.1317 41.8995 15.3661 42.1339C15.6005 42.3683 15.9185 42.5 16.25 42.5C16.5815 42.5 16.8995 42.3683 17.1339 42.1339C17.3683 41.8995 17.5 41.5815 17.5 41.25V40.295C17.5 40.0631 17.4354 39.8357 17.3136 39.6383C17.1917 39.441 17.0174 39.2814 16.81 39.1775L14.5725 38.06C13.9496 37.7484 13.4257 37.2695 13.0596 36.6769C12.6936 36.0843 12.4998 35.4015 12.5 34.705V33.75Z" fill="#222222"/>
</svg>
