<svg width="50" height="50" viewBox="0 0 50 50" fill="none" xmlns="http://www.w3.org/2000/svg">
<g clip-path="url(#clip0_6_30)">
<path d="M26.05 0C25.725 0 25.3922 0.0171875 25.0484 0.0421875C16.2437 0.740625 18.5797 10.0594 18.4484 13.1672C18.2859 15.4375 17.8234 17.2359 16.2609 19.4594C14.4125 21.6484 11.825 25.1891 10.5969 28.8734C10.0203 30.6063 9.74219 32.3906 10.0031 34.0672C9.90485 34.14 9.82422 34.234 9.76719 34.3422C9.22969 34.9047 8.82969 35.5969 8.39062 36.0922C7.97656 36.5063 7.38281 36.6469 6.72969 36.9234C6.07969 37.2063 5.35469 37.4844 4.93125 38.3469C4.74375 38.7391 4.64531 39.1609 4.65469 39.6016C4.65469 40.0078 4.7125 40.4313 4.76875 40.7156C4.89219 41.5453 5.0125 42.2297 4.85 42.7344C4.32969 44.1484 4.27344 45.1172 4.63125 45.8266C4.99531 46.5266 5.74531 46.8031 6.58281 47.0812C8.27656 47.4953 10.5625 47.3641 12.3703 48.325C14.2969 49.3016 16.2594 49.725 17.8219 49.3109C18.3608 49.1901 18.8661 48.9507 19.301 48.6101C19.7358 48.2696 20.0894 47.8365 20.3359 47.3422C21.5562 47.3344 22.8984 46.7797 25.0406 46.6422C26.4969 46.5187 28.3203 47.2031 30.4109 47.0562C30.4672 47.3422 30.5406 47.4703 30.6547 47.7562V47.7641C31.4672 49.3828 32.9734 50.1156 34.5859 49.9938C36.1875 49.8641 37.8969 48.8797 39.2797 47.2688C40.5984 45.6813 42.7875 45.0125 44.2359 44.1438C44.9609 43.7266 45.5469 43.1672 45.5875 42.3609C45.6359 41.5313 45.1734 40.6687 44.1062 39.4969V39.2922L44.0984 39.2844C43.7406 38.8703 43.5781 38.1703 43.3906 37.3578C43.2109 36.5188 43.0156 35.7219 42.3656 35.1766C42.2344 35.0625 42.1047 35.0375 41.9672 34.9C41.8517 34.8187 41.716 34.7711 41.575 34.7625C42.4703 32.1 42.1203 29.4563 41.2078 27.0703C40.1016 24.1328 38.1562 21.5703 36.6828 19.8125C35.0219 17.7203 33.3953 15.7359 33.4281 12.7984C33.4844 8.3125 33.9234 0.021875 26.0469 0.0046875L26.05 0ZM27.1484 7.09531H27.1812C27.6203 7.09531 28.0016 7.22656 28.3937 7.50313C28.7922 7.78594 29.0859 8.19531 29.3047 8.61719C29.525 9.15469 29.6406 9.56875 29.6547 10.1219C29.6547 10.0828 29.6625 10.0406 29.6625 10.0016V10.2203C29.6625 10.2031 29.6547 10.1891 29.6547 10.1719L29.6469 10.1219C29.6469 10.6281 29.5422 11.1328 29.3391 11.5953C29.2425 11.8586 29.0895 12.0976 28.8906 12.2953C28.8344 12.2641 28.7766 12.2312 28.7109 12.2062C28.4922 12.1078 28.2969 12.0766 28.1172 11.9313C27.9693 11.872 27.8167 11.8255 27.6609 11.7922C27.7594 11.6719 27.9625 11.5156 28.0437 11.3781C28.15 11.1172 28.2062 10.8328 28.2234 10.5406V10.4984C28.2279 10.2164 28.1835 9.93567 28.0922 9.66875C28.0031 9.39219 27.8906 9.25156 27.7187 8.97656C27.5391 8.8375 27.3687 8.7 27.1562 8.7H27.125C26.9297 8.7 26.7578 8.75625 26.5797 8.97656C26.3842 9.1693 26.2388 9.40694 26.1562 9.66875C26.0427 9.93126 25.9792 10.2126 25.9687 10.4984V10.5406C25.9687 10.7266 25.9859 10.9141 26.0078 11.1016C25.6016 10.9641 25.0969 10.8156 24.7391 10.6781C24.7196 10.5409 24.7086 10.4026 24.7062 10.2641V10.2219C24.6904 9.67162 24.7966 9.12468 25.0172 8.62031C25.1875 8.16406 25.4969 7.77188 25.9125 7.5125C26.2687 7.24531 26.7 7.09844 27.1484 7.09844V7.09531ZM20.9797 7.21875H21.0531C21.3469 7.21875 21.6156 7.31719 21.8844 7.49531C22.1922 7.76406 22.4391 8.09687 22.6016 8.4625C22.7891 8.87969 22.8937 9.30156 22.9266 9.85469V9.8625C22.9344 10.1391 22.9344 10.2875 22.9187 10.4172V10.5875L22.7484 10.6359C22.4312 10.75 22.1797 10.9125 21.925 11.0531C21.95 10.8656 21.95 10.6781 21.9328 10.4984V10.4656C21.9094 10.1906 21.8516 10.0516 21.7625 9.77344C21.6958 9.55957 21.5753 9.36642 21.4125 9.2125C21.3102 9.12126 21.176 9.07409 21.0391 9.08125H20.9891C20.8437 9.08906 20.7203 9.1625 20.6078 9.35781C20.4701 9.51624 20.3825 9.71203 20.3562 9.92031C20.2984 10.1391 20.2812 10.375 20.3062 10.6125V10.6359C20.3312 10.9219 20.3797 11.0609 20.4766 11.3359C20.5394 11.5479 20.6575 11.7393 20.8187 11.8906C20.8437 11.9156 20.8609 11.9328 20.8922 11.9391C20.7469 12.0625 20.6484 12.0875 20.5281 12.225C20.4453 12.2828 20.3578 12.3563 20.2516 12.3734C20.0349 12.1128 19.8439 11.8318 19.6812 11.5344C19.4819 11.0964 19.3714 10.6232 19.3562 10.1422C19.3247 9.67209 19.3798 9.2002 19.5187 8.75C19.6422 8.34375 19.8375 7.96094 20.1125 7.63594C20.3812 7.35938 20.65 7.22188 20.9828 7.22188L20.9797 7.21875ZM23.8359 10.775C24.5281 10.775 25.3594 10.9047 26.3672 11.6047C26.9781 12.0219 27.4594 12.1672 28.5656 12.5734C29.1031 12.8594 29.4109 13.1359 29.5656 13.4125V13.1359C29.6398 13.2869 29.6811 13.4518 29.6868 13.6199C29.6924 13.788 29.6623 13.9554 29.5984 14.1109C29.3375 14.7625 28.5234 15.4547 27.3781 15.8688V15.8766C26.8234 16.1531 26.3359 16.5688 25.7656 16.8453C25.1891 17.1219 24.5359 17.4562 23.6578 17.4C23.3398 17.414 23.0221 17.3667 22.7219 17.2609C22.4904 17.1381 22.2675 16.9997 22.0547 16.8469C21.6484 16.5703 21.2984 16.1547 20.7781 15.8781V15.8703H20.7703C19.9312 15.3578 19.4844 14.8031 19.3375 14.3891C19.2 13.8281 19.3297 13.4141 19.7453 13.1375C20.2078 12.8609 20.5328 12.575 20.7453 12.4375C20.9641 12.2828 21.0469 12.225 21.1125 12.1688H21.1203V12.1609C21.4703 11.7375 22.0219 11.1844 22.8703 10.9063C23.1531 10.8328 23.4812 10.7766 23.8375 10.7766L23.8359 10.775ZM29.6625 15.2328C30.4125 18.1875 32.1625 22.4766 33.2859 24.5516C33.8797 25.6656 35.0672 28.0094 35.5797 30.8516C35.9047 30.8438 36.2625 30.8906 36.6469 30.9891C37.9969 27.5063 35.5156 23.7625 34.3844 22.7203C33.9203 22.3063 33.8969 22.0281 34.1234 22.0281C35.3531 23.1344 36.9625 25.3016 37.5484 27.7656C37.8172 28.8797 37.8844 30.0703 37.5984 31.2484C37.7359 31.3047 37.875 31.3781 38.0219 31.3859C40.1703 32.5031 40.9672 33.3406 40.5844 34.5922V34.5031C40.4641 34.4969 40.3328 34.5031 40.2109 34.5031H40.1781C40.4969 33.5281 39.7969 32.7781 37.9578 31.9484C36.0531 31.1188 34.5312 31.2484 34.2703 32.9172C34.2519 33.0115 34.2414 33.1071 34.2391 33.2031C34.0906 33.2516 33.9453 33.3078 33.8 33.3328C32.9047 33.8953 32.4234 34.7328 32.1484 35.8078C31.8797 36.9219 31.7984 38.2156 31.725 39.7063C31.675 40.4063 31.3672 41.4547 31.0562 42.5203C27.9312 44.7578 23.5937 45.7266 19.9172 43.2203C19.6797 42.8141 19.4031 42.4391 19.0781 42.1062C18.9221 41.8477 18.7277 41.6143 18.5016 41.4141C18.8828 41.4141 19.2094 41.35 19.4703 41.275C19.7683 41.1314 20.0026 40.8826 20.1281 40.5766C20.3484 40.0219 20.1281 39.1266 19.4031 38.15C18.6891 37.1828 17.4672 36.0828 15.6844 34.9859C14.3672 34.1563 13.6266 33.1719 13.2844 32.0797C12.9422 30.9656 12.9906 29.8172 13.2516 28.6547C13.7641 26.425 15.075 24.2531 15.9141 22.8922C16.1328 22.7625 15.9875 23.1781 15.0594 24.9281C14.2359 26.4906 12.6828 30.1281 14.8047 32.9516C14.8862 30.8895 15.3443 28.8597 16.1562 26.9625C17.3266 24.3016 19.7859 19.6641 19.9812 15.9859C20.0797 16.0672 20.4297 16.2719 20.5828 16.4094C21.0312 16.6859 21.3719 17.1016 21.8125 17.3781C22.2516 17.7922 22.8047 18.0781 23.6359 18.0781C23.7172 18.0859 23.7906 18.0859 23.8625 18.0859C24.7172 18.0859 25.3859 17.8094 25.9375 17.5313C26.5391 17.2453 27.0297 16.8313 27.4828 16.6938H27.4906C28.4594 16.4172 29.2328 15.8547 29.6641 15.2359L29.6625 15.2328ZM34.2203 33.8953C34.3016 35.1469 34.9375 36.4906 36.0594 36.7656C37.2797 37.0422 39.0453 36.0734 39.7859 35.1719L40.225 35.1547C40.8828 35.1375 41.4297 35.1719 41.9891 35.7094L41.9969 35.7172C42.4281 36.1312 42.6328 36.8234 42.8109 37.5406C42.9906 38.3781 43.1281 39.1672 43.6656 39.7609C44.6734 40.8594 45.0078 41.6484 44.9922 42.1375C44.9594 42.6813 44.6 42.9578 43.95 43.3734C42.6391 44.2125 40.3125 44.8547 38.8312 46.6469C37.5437 48.1844 35.975 49.0219 34.5891 49.1281C33.2062 49.2422 32.0094 48.7141 31.3094 47.2578L31.3016 47.25C30.8625 46.4187 31.05 45.1172 31.4156 43.7328C31.7828 42.3406 32.3109 40.9266 32.3844 39.7781C32.4578 38.2891 32.5391 36.9953 32.7828 35.9922C33.0344 35.0234 33.4266 34.3313 34.1266 33.95L34.2156 33.9L34.2203 33.8953ZM11.6859 34H11.7109C11.825 34 11.9312 34.0078 12.0359 34.0328C12.8172 34.1469 13.5094 34.725 14.1687 35.5953L16.0641 39.0625L16.0719 39.0703C16.5766 40.1766 17.6422 41.2828 18.5453 42.4812C19.45 43.725 20.15 44.8391 20.0687 45.7516V45.7687C19.9453 47.3141 19.0672 48.1516 17.725 48.4625C16.3812 48.7391 14.5578 48.4625 12.7359 47.4937C10.7187 46.3797 8.31719 46.5172 6.77969 46.2391C6.01562 46.1016 5.51094 45.8156 5.27344 45.4016C5.04687 44.9875 5.0375 44.1469 5.53437 42.8375V42.8313C5.77812 42.1313 5.60156 41.2609 5.47812 40.4953C5.36406 39.6641 5.30781 39.0203 5.56719 38.5406C5.9 37.8406 6.39687 37.7109 7.00625 37.4266C7.61719 37.15 8.34219 37.0125 8.91094 36.45H8.91875V36.4422C9.44844 35.8906 9.84844 35.1984 10.3109 34.7C10.7031 34.2766 11.1 34 11.6859 34V34ZM26.6047 15.0953C25.7 15.5094 24.6344 16.2094 23.5031 16.2094C22.3719 16.2094 21.4844 15.6578 20.8422 15.2406C20.5172 14.9578 20.2562 14.6797 20.0609 14.5406C19.7187 14.2656 19.7594 13.8422 19.9062 13.8422C20.1328 13.8734 20.175 14.125 20.3203 14.2656C20.525 14.4031 20.7687 14.6797 21.0687 14.9578C21.6797 15.3719 22.4937 15.9328 23.5016 15.9328C24.5125 15.9328 25.7 15.3719 26.4156 14.9578C26.8219 14.6812 27.3422 14.2656 27.7656 13.9891C28.0906 13.7031 28.0766 13.4266 28.3422 13.4266C28.6109 13.4594 28.4172 13.7031 28.0422 14.1188C27.6594 14.4047 27.0734 14.8188 26.6031 15.0953H26.6047ZM24.35 11.7922V11.7531C24.3422 11.7109 24.3734 11.6641 24.4141 11.6469C24.5594 11.5578 24.7875 11.5891 24.9516 11.6547C25.0812 11.6547 25.2844 11.7922 25.2687 11.9375C25.2516 12.0359 25.0891 12.0766 24.9828 12.0766C24.8703 12.0766 24.7875 11.9875 24.6906 11.9313C24.5844 11.8984 24.3797 11.9141 24.3484 11.7922H24.35ZM23.2016 11.7922C23.1594 11.9156 22.9641 11.8984 22.8594 11.9313C22.7609 11.9875 22.6797 12.0766 22.5656 12.0766C22.4594 12.0766 22.2891 12.0344 22.2797 11.9313C22.2656 11.7922 22.4594 11.6547 22.5906 11.6547C22.7609 11.5875 22.9719 11.5562 23.1344 11.6469C23.1672 11.6641 23.2094 11.7109 23.1922 11.7531V11.7922H23.2016Z" fill="#222222"/>
</g>
<defs>
<clipPath id="clip0_6_30">
<rect width="50" height="50" fill="white"/>
</clipPath>
</defs>
</svg>
