<svg width="29" height="50" viewBox="0 0 29 50" fill="none" xmlns="http://www.w3.org/2000/svg">
<g clip-path="url(#clip0_6_34)">
<path d="M15.5787 43.9941C15.6112 44.4824 15.6275 44.9219 15.6275 45.3125C15.6275 46.6146 15.4729 47.7214 15.1636 48.6328C14.8544 49.5443 14.4882 50 14.065 50C13.6418 50 13.2756 49.5443 12.9664 48.6328C12.6571 47.7214 12.5025 46.6146 12.5025 45.3125C12.5025 44.8893 12.5351 44.4499 12.6002 43.9941C12.0793 43.4082 11.1841 42.5456 9.91461 41.4062C8.64508 40.2669 7.5139 39.1846 6.52106 38.1592C5.52822 37.1338 4.49469 35.8887 3.42047 34.4238C2.34625 32.959 1.50804 31.2907 0.905823 29.4189C0.303609 27.5472 0.00250244 25.5534 0.00250244 23.4375C0.00250244 21.224 0.311747 19.0918 0.930237 17.041C1.54873 14.9902 2.32998 13.2406 3.27399 11.792C4.218 10.3434 5.27594 8.95182 6.44781 7.61719C7.61969 6.28255 8.71018 5.18392 9.7193 4.32129C10.7284 3.45866 11.648 2.63672 12.4781 1.85547C13.3082 1.07422 13.8371 0.455729 14.065 0C14.2929 0.455729 14.8218 1.07422 15.6519 1.85547C16.482 2.63672 17.4016 3.45866 18.4107 4.32129C19.4198 5.18392 20.5103 6.28255 21.6822 7.61719C22.8541 8.95182 23.912 10.3434 24.856 11.792C25.8 13.2406 26.5813 14.9902 27.1998 17.041C27.8183 19.0918 28.1275 21.224 28.1275 23.4375C28.1275 25.5534 27.8264 27.5472 27.2242 29.4189C26.622 31.2907 25.7838 32.959 24.7095 34.4238C23.6353 35.8887 22.6018 37.1338 21.6089 38.1592C20.6161 39.1846 19.4849 40.2669 18.2154 41.4062C16.9459 42.5456 16.067 43.4082 15.5787 43.9941Z" fill="#222222"/>
</g>
<defs>
<clipPath id="clip0_6_34">
<rect width="28.13" height="50" fill="white"/>
</clipPath>
</defs>
</svg>
