<svg width="50" height="50" viewBox="0 0 50 50" fill="none" xmlns="http://www.w3.org/2000/svg">
<path d="M35.6875 20.1667L45.8333 24.5833V24.3542C45.6875 23.8542 45.25 23.4167 44.375 22.5417L40.2083 18.375L35.8958 20.1875L35.6875 20.1667Z" fill="#222222"/>
<path d="M25.4167 15.0834C25.5892 15.3855 25.7023 15.7179 25.75 16.0625L32 18.75C32.1861 18.6239 32.3897 18.5257 32.6042 18.4584L33.6042 12.2084L29.4375 8.04169L25.375 14.9167C25.375 14.9167 25.375 15.0209 25.4167 15.0834V15.0834Z" fill="#222222"/>
<path d="M22.1042 14.5833C22.392 14.3508 22.7319 14.1915 23.0947 14.119C23.4574 14.0464 23.8324 14.0628 24.1875 14.1666H24.2917L28.7917 7.20831L27.4167 5.83331C26.5417 4.95831 26.1042 4.52081 25.6042 4.37498C25.1781 4.23357 24.7178 4.23357 24.2917 4.37498C23.7917 4.52081 23.3542 4.95831 22.4792 5.83331L16.2292 12.0833C16.875 12.375 21.4375 14.2916 22.0209 14.5625L22.1042 14.5833Z" fill="#222222"/>
<path d="M15.6042 25.6042H16.1667C16.3676 25.584 16.57 25.584 16.7709 25.6042L21.7292 17.9375V17.8125C21.4721 17.5595 21.2852 17.2441 21.1866 16.8972C21.088 16.5503 21.0811 16.1837 21.1667 15.8333L18.75 14.5833L15.2084 13.0625L10.4167 17.9375L15.6459 25.5625L15.6042 25.6042Z" fill="#222222"/>
<path d="M31.4792 20.5209V20.3542C31.4676 20.2573 31.4676 20.1594 31.4792 20.0625L25.5208 17.4167H25.4167C25.2163 17.7191 24.9438 17.967 24.6237 18.1379C24.3037 18.3088 23.9462 18.3975 23.5833 18.3959H23.2292C23.2292 18.3959 23.125 18.3959 23.1042 18.5L18.1875 26.0417V26.1459L31.375 20.5209C31.375 20.5209 31.4792 20.5625 31.4792 20.5209V20.5209Z" fill="#222222"/>
<path d="M34.3125 18.625C34.5172 18.7203 34.7012 18.8548 34.8542 19.0208L39.0208 17.2708L35.0833 13.375L34.25 18.5208L34.3125 18.625Z" fill="#222222"/>
<path d="M29.5417 30.1667C29.7067 29.8588 29.9535 29.6025 30.255 29.426C30.5564 29.2495 30.9008 29.1598 31.25 29.1667V29.0625L32.375 22.0417L32.1875 21.875L18.75 27.3958C18.8151 27.5804 18.8707 27.7681 18.9167 27.9583L29.5417 30.1667Z" fill="#222222"/>
<path d="M29.4583 31.5209L18.5833 29.1667V29.2917L28.0625 43.75L28.9375 42.8542C29.25 40.9375 30.4166 33.8334 30.5625 33.0209C30.2637 32.8887 30.0046 32.6808 29.811 32.4177C29.6173 32.1545 29.4957 31.8454 29.4583 31.5209V31.5209Z" fill="#222222"/>
<path d="M32.8958 32.1875C32.6988 32.4368 32.4404 32.6307 32.1458 32.75L30.8125 40.9583L38.3958 33.3333L32.8958 32.1875Z" fill="#222222"/>
<path d="M35.125 21.5C35.1054 21.4907 35.0841 21.4859 35.0625 21.4859C35.0409 21.4859 35.0195 21.4907 35 21.5C34.6859 21.8939 34.2294 22.1484 33.7291 22.2083V22.3333L32.5833 29.4166C32.7843 29.5712 32.951 29.7659 33.0729 29.9882C33.1948 30.2105 33.2693 30.4557 33.2916 30.7083H33.4166L39.5625 31.9791L44.3125 27.2291C44.8225 26.7699 45.277 26.2525 45.6666 25.6875L35.125 21.5Z" fill="#222222"/>
<path d="M17.2916 30.3959C16.7126 30.6042 16.079 30.6042 15.5 30.3959L12.9583 34.3542L22.7291 44.1042C23.2221 44.7197 23.8398 45.2238 24.5416 45.5834C24.9677 45.7248 25.4281 45.7248 25.8541 45.5834C26.4236 45.331 26.9238 44.9451 27.3125 44.4584L17.5416 30.2917L17.2916 30.3959Z" fill="#222222"/>
<path d="M13.3125 28.3125C13.3125 28.3125 13.4375 28.3125 13.4375 28.2084C13.4375 28.1042 13.4375 28.2084 13.3125 28.2084L4.6875 26.4167C5.02171 26.81 5.37637 27.1856 5.75 27.5417L8.58333 30.375L13.3125 28.2917V28.3125Z" fill="#222222"/>
<path d="M13.8958 26.9375C14.0036 26.7288 14.1443 26.5389 14.3125 26.375V26.25C12.7083 23.75 11.0416 21.3333 9.37498 18.8958L5.72914 22.5416C4.85414 23.4166 4.41664 23.8541 4.27081 24.3541C4.19091 24.5597 4.1554 24.7798 4.16664 25L13.8958 27.0833V26.9375Z" fill="#222222"/>
<path d="M14.25 29.7083C14.1945 29.6439 14.1457 29.5741 14.1042 29.5L9.5625 31.25L11.8125 33.5417L14.25 29.75C14.25 29.75 14.2708 29.7083 14.25 29.7083V29.7083Z" fill="#222222"/>
</svg>
