<svg width="50" height="50" viewBox="0 0 50 50" fill="none" xmlns="http://www.w3.org/2000/svg">
<path d="M0 0.626587V49.3735H50V0.626587H0ZM2.08281 2.7094H47.9156V47.2891H2.08281V2.7094ZM12.0844 12.0438C12.0844 11.9047 12.3781 11.8 12.5484 11.8C14.338 11.7243 16.1291 11.6889 17.9203 11.6938C23.6984 11.6938 25.9438 14.8594 25.9438 18.9125C25.9438 24.211 22.1031 26.4813 17.3984 26.4813C16.6016 26.4813 16.3328 26.4407 15.7797 26.4407V34.4485C15.7797 34.6188 15.7141 34.6922 15.5437 34.6922H12.3203C12.15 34.6922 12.0844 34.6266 12.0844 34.4563V12.0438ZM15.7797 23.1125C16.2594 23.1453 16.6422 23.1453 17.4719 23.1453C19.9047 23.1453 22.2 22.2828 22.2 18.9875C22.2 16.3422 20.5563 15 17.7734 15C16.9516 15 16.1625 15.0328 15.7797 15.0656V23.1125ZM33.7156 20.6297C32.0641 20.6297 31.5109 21.4594 31.5109 22.1438C31.5109 22.9 31.8859 23.4141 34.0906 24.5531C37.3547 26.1406 38.3875 27.6453 38.3875 29.8828C38.3875 33.211 35.8406 35.0016 32.4062 35.0016C30.5828 35.0016 29.0297 34.6188 28.1344 34.1063C28.0047 34.0406 27.9719 33.936 27.9719 33.7641V30.7047C27.9719 30.5016 28.0703 30.4282 28.2078 30.5344C29.4548 31.3452 30.911 31.7752 32.3984 31.7719C34.05 31.7719 34.7344 31.0875 34.7344 30.1532C34.7344 29.3969 34.2547 28.7453 32.1625 27.6469C29.2 26.2313 27.9625 24.7907 27.9625 22.3813C27.9625 19.6953 30.0625 17.4657 33.7 17.4657C35.4906 17.4657 36.7516 17.7422 37.4438 18.0438C37.6141 18.15 37.6469 18.3203 37.6469 18.4594V21.3156C37.6469 21.486 37.5406 21.5922 37.3375 21.5188C36.4094 20.9735 35.0422 20.6235 33.7078 20.6235L33.7156 20.6297Z" fill="#222222"/>
</svg>
