<svg width="50" height="50" viewBox="0 0 50 50" fill="none" xmlns="http://www.w3.org/2000/svg">
<g clip-path="url(#clip0_6_10)">
<path d="M50 24.3521C50 21.0396 45.8521 17.9 39.4917 15.9541C40.9604 9.4729 40.3083 4.31456 37.4333 2.66248C36.7367 2.27231 35.9483 2.07592 35.15 2.09373V4.36456C35.6187 4.36456 35.9958 4.45831 36.3125 4.63123C37.6979 5.42706 38.3 8.45206 37.8312 12.3458C37.7187 13.3041 37.5354 14.3125 37.3104 15.3416C35.1805 14.8284 33.0188 14.4574 30.8396 14.2312C29.5414 12.4402 28.125 10.7378 26.6 9.1354C29.9229 6.0479 33.0417 4.35623 35.1625 4.35623V2.08331C32.3583 2.08331 28.6896 4.08123 24.9792 7.54581C21.2708 4.10415 17.6 2.12498 14.7979 2.12498V4.39581C16.9083 4.39581 20.0375 6.07915 23.3604 9.14581C21.9333 10.6458 20.5063 12.3458 19.15 14.2312C16.9663 14.4549 14.8007 14.8294 12.6687 15.3521C12.4333 14.3333 12.2604 13.3458 12.1375 12.3979C11.6583 8.50206 12.25 5.47706 13.6271 4.6729C13.9312 4.48956 14.3292 4.40623 14.7979 4.40623V2.1354C13.9437 2.1354 13.1667 2.31873 12.4958 2.70415C9.63125 4.35623 8.98958 9.50206 10.4667 15.9646C4.12708 17.9229 0 21.05 0 24.3521C0 27.6646 4.14792 30.8041 10.5083 32.7479C9.03958 39.2312 9.69167 44.3896 12.5667 46.0396C13.2292 46.4271 14.0042 46.6104 14.8583 46.6104C17.6625 46.6104 21.3313 44.6125 25.0417 41.1479C28.75 44.5916 32.4187 46.5687 35.2229 46.5687C36.0273 46.5857 36.8217 46.3887 37.525 45.9979C40.3896 44.3479 41.0312 39.2021 39.5542 32.7396C45.8729 30.7937 50 27.6541 50 24.3521ZM36.7292 17.5541C36.3333 18.9163 35.8745 20.2595 35.3542 21.5791C34.5024 19.9224 33.5672 18.3099 32.5521 16.7479C34 16.9625 35.3958 17.2271 36.7312 17.5541H36.7292ZM32.0625 28.4083C31.2687 29.7833 30.4521 31.0896 29.6062 32.3021C26.5484 32.5716 23.473 32.5751 20.4146 32.3125C18.6603 29.8066 17.1261 27.1537 15.8292 24.3833C17.1241 21.6064 18.6518 18.9442 20.3958 16.425C23.4529 16.1549 26.5276 16.1507 29.5854 16.4125C30.4312 17.625 31.2583 18.9208 32.0521 20.2875C32.8271 21.6208 33.5312 22.975 34.1729 24.3416C33.5241 25.7249 32.8201 27.0815 32.0625 28.4083V28.4083ZM35.3542 27.0833C35.9042 28.4479 36.375 29.8146 36.7604 31.1396C35.4271 31.4666 34.0187 31.7416 32.5625 31.9541C33.5734 30.3779 34.5051 28.7523 35.3542 27.0833V27.0833ZM25.0208 37.9583C24.0729 36.9791 23.125 35.8896 22.1875 34.6958C23.1042 34.7375 24.0417 34.7687 24.9896 34.7687C25.9479 34.7687 26.8958 34.7479 27.8229 34.6958C26.9062 35.8896 25.9583 36.9791 25.0208 37.9583ZM17.4375 31.9541C16.0328 31.7506 14.6383 31.4823 13.2583 31.15C13.6354 29.8354 14.1042 28.4791 14.6333 27.125C15.0521 27.9375 15.4917 28.7541 15.9708 29.5708C16.45 30.3854 16.9375 31.1812 17.4375 31.9541ZM24.9687 10.7458C25.9167 11.725 26.8646 12.8146 27.8021 14.0083C26.8854 13.9666 25.9479 13.9354 25 13.9354C24.0417 13.9354 23.0937 13.9562 22.1667 14.0083C23.0833 12.8146 24.0312 11.725 24.9687 10.7458ZM17.4271 16.75C16.4164 18.3228 15.4847 19.9449 14.6354 21.6104C14.1004 20.2822 13.6311 18.9285 13.2292 17.5541C14.5625 17.2375 15.9708 16.9625 17.4271 16.75ZM8.20417 29.5083C4.59583 27.9708 2.2625 25.9521 2.2625 24.3521C2.2625 22.7521 4.59583 20.7229 8.20417 19.1958C9.07917 18.8187 10.0375 18.4812 11.0271 18.1666C11.6083 20.1625 12.3729 22.2416 13.3187 24.3729C12.4258 26.3774 11.6705 28.4406 11.0583 30.5479C10.0905 30.2482 9.13799 29.9013 8.20417 29.5083V29.5083ZM13.6875 44.0708C12.3021 43.2791 11.7 40.25 12.1687 36.3583C12.2812 35.4 12.4646 34.3896 12.6896 33.3604C14.6854 33.85 16.8667 34.2271 19.1604 34.4729C20.4587 36.2639 21.875 37.9663 23.4 39.5687C20.0771 42.6562 16.9583 44.3479 14.8375 44.3479C14.4374 44.3523 14.0424 44.2578 13.6875 44.0729V44.0708ZM37.8625 36.3062C38.3417 40.2 37.75 43.2271 36.3729 44.0312C36.0687 44.2146 35.6708 44.2958 35.2021 44.2958C33.0917 44.2958 29.9625 42.6146 26.6396 39.5458C28.0667 38.05 29.4937 36.3479 30.85 34.4625C33.0337 34.2388 35.1993 33.8643 37.3312 33.3416C37.5667 34.3708 37.7479 35.3583 37.8625 36.3062V36.3062ZM41.7854 29.5083C40.9104 29.8854 39.9521 30.2229 38.9625 30.5375C38.3395 28.4194 37.5739 26.3459 36.6708 24.3312C37.6083 22.2125 38.3604 20.1437 38.9312 18.1562C39.9417 18.4708 40.8979 18.8187 41.7958 19.1958C45.4042 20.7333 47.7375 22.7521 47.7375 24.3521C47.7271 25.9521 45.3937 27.9812 41.7854 29.5083V29.5083Z" fill="#222222"/>
<path d="M24.9896 29.0104C26.225 29.0104 27.4099 28.5196 28.2835 27.646C29.1571 26.7724 29.6479 25.5875 29.6479 24.3521C29.6479 23.1166 29.1571 21.9317 28.2835 21.0581C27.4099 20.1845 26.225 19.6937 24.9896 19.6937C23.7541 19.6937 22.5693 20.1845 21.6956 21.0581C20.822 21.9317 20.3312 23.1166 20.3312 24.3521C20.3312 25.5875 20.822 26.7724 21.6956 27.646C22.5693 28.5196 23.7541 29.0104 24.9896 29.0104V29.0104Z" fill="#222222"/>
</g>
<defs>
<clipPath id="clip0_6_10">
<rect width="50" height="50" fill="white"/>
</clipPath>
</defs>
</svg>
