<svg width="50" height="50" viewBox="0 0 50 50" fill="none" xmlns="http://www.w3.org/2000/svg">
<g clip-path="url(#clip0_6_20)">
<path d="M23.5813 34.6031C23.5578 34.65 23.5344 34.6875 23.5813 34.6031V34.6031ZM43.0437 27.8062C41.4719 27.8062 39.9219 28.1656 38.5125 28.8609C38.0516 27.9312 37.575 27.1187 37.4969 26.5093C37.4031 25.7984 37.3016 25.3765 37.4109 24.5328C37.5203 23.689 38.0125 22.4937 38.0047 22.4078C37.9969 22.3218 37.8953 21.8922 36.8875 21.8843C35.8797 21.8765 35.0125 22.0797 34.9109 22.3453C34.7326 22.8306 34.5941 23.3297 34.4969 23.8375C34.3172 24.7515 32.4828 28.0172 31.4438 29.7203C31.1 29.0562 30.8109 28.4703 30.7484 28.0015C30.6547 27.2906 30.5531 26.8687 30.6625 26.025C30.7719 25.1812 31.2641 23.9859 31.2562 23.9C31.2484 23.814 31.1469 23.3843 30.1406 23.3765C29.1344 23.3687 28.2656 23.5718 28.1641 23.8375C28.0625 24.1031 27.9531 24.7281 27.75 25.3297C27.5469 25.9312 25.1016 31.3687 24.4625 32.7828C24.1344 33.5015 23.8531 34.0797 23.65 34.4703C23.6188 34.5328 23.5953 34.5718 23.5797 34.6031C23.6031 34.564 23.6188 34.525 23.6188 34.5406C23.4469 34.8765 23.3453 35.064 23.3453 35.064V35.0718C23.2125 35.3218 23.0641 35.5484 22.9938 35.5484C22.9469 35.5484 22.8453 34.8922 23.0172 33.9937C23.3844 32.1031 24.2516 29.1656 24.2438 29.064C24.2359 29.0093 24.4078 28.5015 23.6734 28.2281C22.9625 27.9703 22.7047 28.4 22.6422 28.4C22.5797 28.4 22.5328 28.5562 22.5328 28.5562C22.5328 28.5562 23.3219 25.2437 21.0172 25.2437C19.5797 25.2437 17.5797 26.8218 16.5969 28.2515C15.9797 28.5875 14.6438 29.314 13.2375 30.0875L11.6203 30.9781C11.5813 30.939 11.55 30.9 11.5109 30.8609C8.71406 27.8765 3.55156 25.7672 3.77031 21.7593C3.84844 20.2984 4.35625 16.4625 13.6984 11.8062C21.3547 7.99372 27.475 9.0406 28.5297 11.3687C30.0453 14.689 25.2563 20.8687 17.3063 21.7593C14.275 22.0953 12.6828 20.9234 12.2844 20.4859C11.8703 20.025 11.8078 20.0015 11.6516 20.0875C11.3938 20.2281 11.5578 20.6343 11.6516 20.8765C11.8859 21.4937 12.8625 22.5875 14.5266 23.1343C15.9875 23.6109 19.5406 23.8765 23.8359 22.2125C28.6625 20.3531 32.4203 15.1734 31.3172 10.8375C30.1953 6.43122 22.8891 4.98591 15.9813 7.43904C11.8641 8.89997 7.4125 11.1968 4.21094 14.189C0.406251 17.7515 -0.201562 20.8531 0.0484382 22.15C0.939063 26.7515 7.28125 29.7515 9.81875 31.9703L9.46719 32.1656C8.19375 32.7984 3.35938 35.3297 2.14844 38.0015C0.781251 41.0328 2.375 43.2047 3.42031 43.5015C6.68594 44.4078 10.0281 42.775 11.825 40.0953C13.6219 37.4156 13.4031 33.9156 12.575 32.3219C12.5672 32.2984 12.5516 32.2828 12.5438 32.2593C13.4812 31.7041 14.4266 31.1624 15.3797 30.6343C15.0672 31.4781 14.8406 32.4937 14.7234 33.9625C14.5828 35.6812 15.2938 37.9078 16.2156 38.7828C16.6219 39.1656 17.1125 39.1734 17.4188 39.1734C18.4969 39.1734 18.9813 38.2828 19.5203 37.2203C20.1844 35.9234 20.7703 34.4156 20.7703 34.4156C20.7703 34.4156 20.0359 38.4937 22.0438 38.4937C22.7781 38.4937 23.5125 37.5484 23.8406 37.064V37.0718C23.8406 37.0718 23.8563 37.0406 23.8953 36.9781C23.9734 36.8609 24.0125 36.7906 24.0125 36.7906V36.7672C24.3094 36.2593 24.9578 35.0953 25.9344 33.1734C27.2 30.689 28.4094 27.5875 28.4094 27.5875C28.5266 28.2687 28.6891 28.9422 28.8938 29.6031C29.1125 30.3453 29.5734 31.1578 29.9406 31.9468C29.6438 32.3531 29.4641 32.5875 29.4641 32.5875C29.4641 32.5937 29.4672 32.5984 29.4719 32.6031C29.2375 32.9156 28.9719 33.2515 28.6984 33.5797C27.7 34.7672 26.5109 36.1265 26.3547 36.5172C26.1672 36.9781 26.2141 37.3218 26.5734 37.5875C26.8391 37.7906 27.3078 37.8218 27.8 37.7828C28.6984 37.7203 29.3312 37.5015 29.6359 37.3609C30.1979 37.1596 30.7291 36.8808 31.2141 36.5328C32.1906 35.814 32.7844 34.7828 32.7297 33.4234C32.6984 32.6734 32.4563 31.9234 32.1594 31.2203C32.2453 31.0953 32.3391 30.9625 32.425 30.8297C33.4417 29.3127 34.3577 27.7307 35.1672 26.0937C35.2844 26.775 35.4453 27.4484 35.6516 28.1093C35.8391 28.7422 36.2062 29.4375 36.5422 30.1172C35.0891 31.2968 34.1906 32.664 33.8797 33.5625C33.3016 35.2265 33.7547 35.9765 34.6063 36.1484C34.9891 36.2265 35.5359 36.0468 35.9422 35.875C36.5453 35.6734 37.1141 35.3812 37.6281 35.0078C38.6047 34.289 39.55 33.2812 39.4859 31.914C39.4625 31.2968 39.2906 30.6797 39.0641 30.0859C40.2906 29.5703 41.8844 29.289 43.9156 29.5234C48.2656 30.0312 49.1172 32.75 48.9531 33.8828C48.7891 35.0156 47.875 35.6484 47.5703 35.8359C47.2656 36.0234 47.1719 36.0937 47.1953 36.2344C47.2344 36.4375 47.375 36.4297 47.6328 36.3828C47.9922 36.3203 49.9141 35.4609 50 33.3593C50.125 30.7031 47.5703 27.7812 43.0469 27.8047L43.0437 27.8062ZM9.51406 39.1109C8.07656 40.6812 6.0625 41.275 5.19531 40.775C4.26563 40.2344 4.63281 37.9234 6.40469 36.25C7.48281 35.2344 8.87344 34.2968 9.79531 33.7187C10.0063 33.5937 10.3109 33.4062 10.6859 33.1797C10.7164 33.1601 10.7477 33.1419 10.7797 33.125C10.85 33.0781 10.9281 33.039 11.0063 32.9922C11.6531 35.3672 11.0297 37.4609 9.51406 39.1094V39.1109ZM20.0109 31.9703C19.5109 33.1969 18.4578 36.3219 17.8156 36.1578C17.2688 36.0172 16.9328 33.6343 17.7063 31.2906C18.0969 30.1109 18.925 28.7047 19.4172 28.1578C20.2063 27.275 21.0734 26.9937 21.2766 27.3453C21.55 27.8062 20.3234 31.2047 20.0109 31.9703ZM28.6828 36.1109C28.4719 36.2203 28.2766 36.2906 28.1828 36.2359C28.1125 36.1968 28.2687 36.0484 28.2687 36.0484C28.2687 36.0484 29.3547 34.8843 29.7844 34.3531C30.0344 34.0406 30.3234 33.6734 30.6359 33.2672C30.6359 33.3062 30.6437 33.3453 30.6437 33.3922C30.6344 34.7906 29.2906 35.7359 28.6813 36.1109H28.6828ZM35.3703 34.5875C35.2141 34.4781 35.2375 34.1109 35.7609 32.9703C35.9641 32.525 36.4328 31.775 37.2453 31.0562C37.3375 31.3281 37.3875 31.6125 37.3937 31.9C37.3859 33.6578 36.1281 34.314 35.3703 34.5875V34.5875Z" fill="#222222"/>
</g>
<defs>
<clipPath id="clip0_6_20">
<rect width="50" height="50" fill="white"/>
</clipPath>
</defs>
</svg>
