<svg width="50" height="50" viewBox="0 0 50 50" fill="none" xmlns="http://www.w3.org/2000/svg">
<path d="M12.5383 24.0082C12.343 26.4674 14.5034 28.2787 15.9778 28.2787C17.4543 28.2099 23.2046 23.3641 23.2046 23.3641C25.9091 19.9437 25.9208 18.4228 25.9208 17.2273C25.6952 11.9497 16.08 19.9881 12.5383 24.0082V24.0082ZM36.3239 21.9654C37.6291 19.2031 35.8731 16.1351 32.0536 18.8299C29.0185 20.759 25.0891 24.7275 23.2085 26.2811C22.3362 28.0429 24.5474 32.8778 28.0513 30.325C32.1929 27.316 35.2173 24.4866 36.3239 21.9654V21.9654ZM39.8786 5.25527L40.7197 0H50V9.59316L46.5989 9.63379L42.5037 23.5043C42.7586 28.3996 40.2762 28.4793 39.9591 30.7255C39.1621 36.371 32.8487 40.9903 30.435 40.9903C28.8251 40.9437 27.6482 39.0985 27.2529 37.4907C31.792 32.4702 37.8959 28.5248 37.8959 28.5248C38.277 25.8845 37.4394 25.0438 40.2565 22.7939L42.9448 8.65937C40.6489 7.14326 39.5776 7.1668 39.8786 5.25527V5.25527ZM21.7646 28.6635C24.1184 33.4061 27.5192 33.5297 32.792 27.4917C32.9173 28.0499 33.0545 28.6348 32.8027 30.0391C22.0766 39.6327 11.974 48.9697 8.89893 50H0V47.6133C1.44727 45.6062 13.325 35.8095 21.7646 28.6635V28.6635ZM37.617 37.8461C37.1341 41.9512 33.3914 45.5434 28.3902 50H12.5402L25.9023 38.7446C28.209 43.9941 32.3061 43.2337 37.6171 37.8461H37.617ZM18.873 28.5283L0 44.6146V34.1781L11.1064 25.1367C11.7006 28.5021 15.3403 31.4654 18.873 28.5285V28.5283Z" fill="#222222"/>
</svg>
