<svg width="50" height="50" viewBox="0 0 50 50" fill="none" xmlns="http://www.w3.org/2000/svg">
<path d="M34.8958 39.2578C33.2422 39.106 31.1198 38.7858 29.0687 36.5457V41.1541C32.8369 43.6035 39.3178 43.1539 41.5771 40.21C42.9199 38.4603 43.4733 36.1165 42.4792 33.462C40.1367 28.7435 34.5703 28.4505 32.9516 25.4709C31.1632 20.6449 38.5387 19.7729 42.0822 23.0242V18.6922C40.5725 17.7171 38.1717 17.6123 36.4875 17.7033C32.0431 17.9433 29.0564 20.5257 29.101 24.3726C28.9096 29.7424 35.0414 31.125 38.1204 33.6101C40.2115 35.3845 40.0618 39.6877 34.8958 39.2578V39.2578ZM17.3479 42.3354V21.4868H10.6312V18.0393H27.7851V21.4868H21.0545V42.3354H17.3479V42.3354ZM46.875 3.125V46.875H3.125V3.125H46.875ZM50 0H0V50H50V0Z" fill="#222222"/>
</svg>
