<svg width="50" height="50" viewBox="0 0 50 50" fill="none" xmlns="http://www.w3.org/2000/svg">
<path d="M43.7828 37.7516L25.7328 47.9157V39.9969L36.9797 33.836L43.7828 37.7516ZM45.0203 36.6375V15.3735L38.4125 19.1735V32.8375L45.0203 36.6375ZM6.09529 37.7516L24.1453 47.9157V39.9969L12.8984 33.836L6.09529 37.7516ZM4.85779 36.6375V15.3735L11.4656 19.1735V32.8375L4.85779 36.6375ZM5.63123 13.9969L24.1453 3.5719V11.2297L12.1984 17.7735L5.63123 13.9969ZM44.2469 13.9969L25.7328 3.5719V11.2297L37.6797 17.7735L44.2469 13.9969ZM24.1453 38.2L13.0531 32.1203V20.0844L24.1453 26.4641V38.2ZM25.7328 38.2L36.825 32.1203V20.0844L25.7328 26.4641V38.2ZM13.8015 18.6938L24.9422 12.5985L36.0828 18.6938L24.9422 25.0985L13.8015 18.6938Z" fill="#222222"/>
</svg>
