<svg width="50" height="50" viewBox="0 0 50 50" fill="none" xmlns="http://www.w3.org/2000/svg">
<path d="M39.4781 23.9156C39.4781 21.2656 38.525 19.4312 37.7094 18.0031L37.4594 17.5969C36.4687 16.0031 35.6031 14.6031 35.6031 12.9719C35.6031 11.0031 37.0969 9.16562 39.2031 9.16562C39.2656 9.16562 39.325 9.17187 39.3844 9.17499L39.4812 9.18437C35.5318 5.55668 30.3627 3.5466 25 3.55312C21.4458 3.55129 17.9471 4.43381 14.819 6.12115C11.6909 7.80849 9.03176 10.2476 7.08124 13.2187C7.58124 13.2344 8.05937 13.2469 8.46249 13.2469C10.7031 13.2469 14.175 12.975 14.175 12.975C15.3312 12.9062 15.4687 14.6031 14.3125 14.7406C14.3125 14.7406 13.1531 14.8781 11.8594 14.9437L19.6719 38.175L24.3594 24.0937L21.0156 14.9406C19.8625 14.8719 18.7687 14.7375 18.7687 14.7375C17.6125 14.6687 17.75 12.9 18.9031 12.9687C18.9031 12.9687 22.4469 13.2406 24.5531 13.2406C26.7969 13.2406 30.2719 12.9687 30.2719 12.9687C31.4281 12.9 31.5625 14.6 30.4062 14.7375C30.4062 14.7375 29.2437 14.8719 27.9531 14.9406L35.7031 37.9937L37.8406 30.8469L38.0094 30.3062C38.8531 27.6187 39.475 25.6344 39.475 23.9125L39.4781 23.9156ZM3.55312 25C3.5529 29.0273 4.68649 32.9734 6.82415 36.3865C8.9618 39.7997 12.0172 42.5421 15.6406 44.3L5.40624 16.2687C4.18071 19.0162 3.54923 21.9916 3.55312 25V25Z" fill="#222222"/>
<path d="M18.9406 45.5719L25.3781 26.875L31.9687 44.9375C32.0125 45.0406 32.0625 45.1375 32.1219 45.2312C27.8732 46.728 23.2609 46.8472 18.9406 45.5719V45.5719ZM43.8156 14.7094C43.9094 15.3937 43.9625 16.125 43.9625 16.9156C43.9625 19.0906 43.5562 21.5375 42.3312 24.5969L35.7812 43.5344C40.6147 40.7261 44.1601 36.1409 45.6615 30.7563C47.1629 25.3716 46.5017 19.6135 43.8187 14.7094H43.8156Z" fill="#222222"/>
<path fill-rule="evenodd" clip-rule="evenodd" d="M0 25C0 11.2156 11.2156 0 25 0C38.7812 0 50 11.2156 50 25C50 38.7844 38.7812 50 25 50C11.2156 50 0 38.7844 0 25ZM1.14688 25C1.14688 38.1531 11.8469 48.8531 25 48.8531C38.15 48.8531 48.85 38.1531 48.85 25C48.85 11.8437 38.15 1.14688 25 1.14688C11.8437 1.14688 1.14688 11.8437 1.14688 25Z" fill="#222222"/>
</svg>
